<mxfile host="app.diagrams.net" modified="2024-02-27T19:11:02.340Z" agent="Mozilla/5.0 (Windows NT 10.0; Win64; x64) AppleWebKit/537.36 (KHTML, like Gecko) Chrome/121.0.0.0 Safari/537.36" etag="zCmNbbmr--1vs8fy8Yt2" version="23.1.7" type="device">
  <diagram name="PÃ¡gina-1" id="0RjYqmJVKGxQOhRNd5XY">
    <mxGraphModel dx="5127" dy="1883" grid="1" gridSize="10" guides="1" tooltips="1" connect="1" arrows="1" fold="1" page="1" pageScale="1" pageWidth="827" pageHeight="1169" math="0" shadow="0">
      <root>
        <mxCell id="0" />
        <mxCell id="1" parent="0" />
        <mxCell id="rJgXPqC6BMBvEcf_vklA-9" style="edgeStyle=orthogonalEdgeStyle;rounded=0;orthogonalLoop=1;jettySize=auto;html=1;exitX=0.5;exitY=1;exitDx=0;exitDy=0;entryX=0;entryY=0.5;entryDx=0;entryDy=0;" edge="1" parent="1" source="rJgXPqC6BMBvEcf_vklA-1" target="rJgXPqC6BMBvEcf_vklA-2">
          <mxGeometry relative="1" as="geometry" />
        </mxCell>
        <mxCell id="rJgXPqC6BMBvEcf_vklA-1" value="" style="image;aspect=fixed;perimeter=ellipsePerimeter;html=1;align=center;shadow=0;dashed=0;spacingTop=3;image=img/lib/active_directory/internet_cloud.svg;" vertex="1" parent="1">
          <mxGeometry x="140" y="64.8" width="90" height="56.7" as="geometry" />
        </mxCell>
        <mxCell id="rJgXPqC6BMBvEcf_vklA-11" style="edgeStyle=orthogonalEdgeStyle;rounded=0;orthogonalLoop=1;jettySize=auto;html=1;exitX=0;exitY=1;exitDx=0;exitDy=0;entryX=1;entryY=0.5;entryDx=0;entryDy=0;" edge="1" parent="1" source="rJgXPqC6BMBvEcf_vklA-2" target="rJgXPqC6BMBvEcf_vklA-10">
          <mxGeometry relative="1" as="geometry" />
        </mxCell>
        <mxCell id="rJgXPqC6BMBvEcf_vklA-2" value="" style="image;html=1;image=img/lib/clip_art/networking/Modem_128x128.png" vertex="1" parent="1">
          <mxGeometry x="310" y="110" width="80" height="80" as="geometry" />
        </mxCell>
        <mxCell id="rJgXPqC6BMBvEcf_vklA-18" value="" style="edgeStyle=orthogonalEdgeStyle;rounded=0;orthogonalLoop=1;jettySize=auto;html=1;" edge="1" parent="1" source="rJgXPqC6BMBvEcf_vklA-4" target="rJgXPqC6BMBvEcf_vklA-10">
          <mxGeometry relative="1" as="geometry" />
        </mxCell>
        <mxCell id="rJgXPqC6BMBvEcf_vklA-19" style="edgeStyle=orthogonalEdgeStyle;rounded=0;orthogonalLoop=1;jettySize=auto;html=1;exitX=1;exitY=0.5;exitDx=0;exitDy=0;entryX=0;entryY=0.5;entryDx=0;entryDy=0;" edge="1" parent="1" source="rJgXPqC6BMBvEcf_vklA-4" target="rJgXPqC6BMBvEcf_vklA-5">
          <mxGeometry relative="1" as="geometry" />
        </mxCell>
        <mxCell id="rJgXPqC6BMBvEcf_vklA-20" style="edgeStyle=orthogonalEdgeStyle;rounded=0;orthogonalLoop=1;jettySize=auto;html=1;exitX=0.5;exitY=1;exitDx=0;exitDy=0;" edge="1" parent="1" source="rJgXPqC6BMBvEcf_vklA-4" target="rJgXPqC6BMBvEcf_vklA-6">
          <mxGeometry relative="1" as="geometry" />
        </mxCell>
        <mxCell id="rJgXPqC6BMBvEcf_vklA-21" style="edgeStyle=orthogonalEdgeStyle;rounded=0;orthogonalLoop=1;jettySize=auto;html=1;exitX=0;exitY=0.5;exitDx=0;exitDy=0;" edge="1" parent="1" source="rJgXPqC6BMBvEcf_vklA-4" target="rJgXPqC6BMBvEcf_vklA-7">
          <mxGeometry relative="1" as="geometry" />
        </mxCell>
        <mxCell id="rJgXPqC6BMBvEcf_vklA-4" value="" style="image;html=1;image=img/lib/clip_art/networking/Switch_128x128.png" vertex="1" parent="1">
          <mxGeometry x="220" y="360" width="80" height="80" as="geometry" />
        </mxCell>
        <mxCell id="rJgXPqC6BMBvEcf_vklA-56" style="edgeStyle=orthogonalEdgeStyle;rounded=0;orthogonalLoop=1;jettySize=auto;html=1;exitX=1;exitY=0.5;exitDx=0;exitDy=0;" edge="1" parent="1" source="rJgXPqC6BMBvEcf_vklA-5" target="rJgXPqC6BMBvEcf_vklA-51">
          <mxGeometry relative="1" as="geometry" />
        </mxCell>
        <mxCell id="rJgXPqC6BMBvEcf_vklA-58" style="edgeStyle=orthogonalEdgeStyle;rounded=0;orthogonalLoop=1;jettySize=auto;html=1;exitX=1;exitY=0.5;exitDx=0;exitDy=0;" edge="1" parent="1" source="rJgXPqC6BMBvEcf_vklA-5" target="rJgXPqC6BMBvEcf_vklA-53">
          <mxGeometry relative="1" as="geometry" />
        </mxCell>
        <mxCell id="rJgXPqC6BMBvEcf_vklA-59" style="edgeStyle=orthogonalEdgeStyle;rounded=0;orthogonalLoop=1;jettySize=auto;html=1;exitX=1;exitY=0.75;exitDx=0;exitDy=0;" edge="1" parent="1" source="rJgXPqC6BMBvEcf_vklA-5" target="rJgXPqC6BMBvEcf_vklA-52">
          <mxGeometry relative="1" as="geometry" />
        </mxCell>
        <mxCell id="rJgXPqC6BMBvEcf_vklA-60" style="edgeStyle=orthogonalEdgeStyle;rounded=0;orthogonalLoop=1;jettySize=auto;html=1;exitX=1;exitY=1;exitDx=0;exitDy=0;" edge="1" parent="1" source="rJgXPqC6BMBvEcf_vklA-5" target="rJgXPqC6BMBvEcf_vklA-54">
          <mxGeometry relative="1" as="geometry" />
        </mxCell>
        <mxCell id="rJgXPqC6BMBvEcf_vklA-64" style="edgeStyle=orthogonalEdgeStyle;rounded=0;orthogonalLoop=1;jettySize=auto;html=1;exitX=1;exitY=0.5;exitDx=0;exitDy=0;entryX=0;entryY=0.75;entryDx=0;entryDy=0;" edge="1" parent="1" source="rJgXPqC6BMBvEcf_vklA-5" target="rJgXPqC6BMBvEcf_vklA-63">
          <mxGeometry relative="1" as="geometry" />
        </mxCell>
        <mxCell id="rJgXPqC6BMBvEcf_vklA-65" style="edgeStyle=orthogonalEdgeStyle;rounded=0;orthogonalLoop=1;jettySize=auto;html=1;exitX=1;exitY=0.75;exitDx=0;exitDy=0;entryX=0;entryY=0.75;entryDx=0;entryDy=0;" edge="1" parent="1" source="rJgXPqC6BMBvEcf_vklA-5" target="rJgXPqC6BMBvEcf_vklA-62">
          <mxGeometry relative="1" as="geometry" />
        </mxCell>
        <mxCell id="rJgXPqC6BMBvEcf_vklA-67" style="edgeStyle=orthogonalEdgeStyle;rounded=0;orthogonalLoop=1;jettySize=auto;html=1;exitX=1;exitY=0.25;exitDx=0;exitDy=0;entryX=0;entryY=1;entryDx=0;entryDy=0;" edge="1" parent="1" source="rJgXPqC6BMBvEcf_vklA-5" target="rJgXPqC6BMBvEcf_vklA-61">
          <mxGeometry relative="1" as="geometry" />
        </mxCell>
        <mxCell id="rJgXPqC6BMBvEcf_vklA-5" value="" style="image;html=1;image=img/lib/clip_art/networking/Switch_128x128.png" vertex="1" parent="1">
          <mxGeometry x="390" y="360" width="80" height="80" as="geometry" />
        </mxCell>
        <mxCell id="rJgXPqC6BMBvEcf_vklA-49" style="edgeStyle=orthogonalEdgeStyle;rounded=0;orthogonalLoop=1;jettySize=auto;html=1;exitX=1;exitY=0.5;exitDx=0;exitDy=0;" edge="1" parent="1" source="rJgXPqC6BMBvEcf_vklA-6" target="rJgXPqC6BMBvEcf_vklA-37">
          <mxGeometry relative="1" as="geometry" />
        </mxCell>
        <mxCell id="rJgXPqC6BMBvEcf_vklA-6" value="" style="image;html=1;image=img/lib/clip_art/networking/Switch_128x128.png" vertex="1" parent="1">
          <mxGeometry x="210" y="505" width="80" height="80" as="geometry" />
        </mxCell>
        <mxCell id="rJgXPqC6BMBvEcf_vklA-7" value="" style="image;html=1;image=img/lib/clip_art/networking/Switch_128x128.png" vertex="1" parent="1">
          <mxGeometry x="60" y="460" width="80" height="150" as="geometry" />
        </mxCell>
        <mxCell id="rJgXPqC6BMBvEcf_vklA-14" style="edgeStyle=orthogonalEdgeStyle;rounded=0;orthogonalLoop=1;jettySize=auto;html=1;exitX=0;exitY=0.5;exitDx=0;exitDy=0;" edge="1" parent="1" source="rJgXPqC6BMBvEcf_vklA-10">
          <mxGeometry relative="1" as="geometry">
            <mxPoint x="100" y="269.66666666666663" as="targetPoint" />
          </mxGeometry>
        </mxCell>
        <mxCell id="rJgXPqC6BMBvEcf_vklA-10" value="" style="image;html=1;image=img/lib/clip_art/computers/Server_Tower_128x128.png" vertex="1" parent="1">
          <mxGeometry x="210" y="230" width="80" height="80" as="geometry" />
        </mxCell>
        <mxCell id="rJgXPqC6BMBvEcf_vklA-15" style="edgeStyle=orthogonalEdgeStyle;rounded=0;orthogonalLoop=1;jettySize=auto;html=1;exitX=1;exitY=0.5;exitDx=0;exitDy=0;" edge="1" parent="1" source="rJgXPqC6BMBvEcf_vklA-12">
          <mxGeometry relative="1" as="geometry">
            <mxPoint x="110" y="270" as="targetPoint" />
          </mxGeometry>
        </mxCell>
        <mxCell id="rJgXPqC6BMBvEcf_vklA-12" value="" style="image;html=1;image=img/lib/clip_art/computers/Printer_Commercial_128x128.png" vertex="1" parent="1">
          <mxGeometry y="280" width="80" height="80" as="geometry" />
        </mxCell>
        <mxCell id="rJgXPqC6BMBvEcf_vklA-16" style="edgeStyle=orthogonalEdgeStyle;rounded=0;orthogonalLoop=1;jettySize=auto;html=1;exitX=1;exitY=0.5;exitDx=0;exitDy=0;" edge="1" parent="1" source="rJgXPqC6BMBvEcf_vklA-13">
          <mxGeometry relative="1" as="geometry">
            <mxPoint x="110" y="270" as="targetPoint" />
          </mxGeometry>
        </mxCell>
        <mxCell id="rJgXPqC6BMBvEcf_vklA-13" value="" style="image;html=1;image=img/lib/clip_art/computers/Printer_Commercial_128x128.png" vertex="1" parent="1">
          <mxGeometry x="10" y="170" width="80" height="80" as="geometry" />
        </mxCell>
        <mxCell id="rJgXPqC6BMBvEcf_vklA-22" style="edgeStyle=orthogonalEdgeStyle;rounded=0;orthogonalLoop=1;jettySize=auto;html=1;exitX=1;exitY=0.5;exitDx=0;exitDy=0;entryX=0;entryY=0.5;entryDx=0;entryDy=0;" edge="1" parent="1" source="rJgXPqC6BMBvEcf_vklA-17" target="rJgXPqC6BMBvEcf_vklA-7">
          <mxGeometry relative="1" as="geometry" />
        </mxCell>
        <mxCell id="rJgXPqC6BMBvEcf_vklA-30" style="edgeStyle=orthogonalEdgeStyle;rounded=0;orthogonalLoop=1;jettySize=auto;html=1;" edge="1" parent="1" source="rJgXPqC6BMBvEcf_vklA-17" target="rJgXPqC6BMBvEcf_vklA-24">
          <mxGeometry relative="1" as="geometry" />
        </mxCell>
        <mxCell id="rJgXPqC6BMBvEcf_vklA-31" style="edgeStyle=orthogonalEdgeStyle;rounded=0;orthogonalLoop=1;jettySize=auto;html=1;exitX=1;exitY=1;exitDx=0;exitDy=0;" edge="1" parent="1" source="rJgXPqC6BMBvEcf_vklA-17">
          <mxGeometry relative="1" as="geometry">
            <mxPoint x="150" y="640" as="targetPoint" />
          </mxGeometry>
        </mxCell>
        <mxCell id="rJgXPqC6BMBvEcf_vklA-32" style="edgeStyle=orthogonalEdgeStyle;rounded=0;orthogonalLoop=1;jettySize=auto;html=1;exitX=0.75;exitY=1;exitDx=0;exitDy=0;" edge="1" parent="1" source="rJgXPqC6BMBvEcf_vklA-17" target="rJgXPqC6BMBvEcf_vklA-28">
          <mxGeometry relative="1" as="geometry" />
        </mxCell>
        <mxCell id="rJgXPqC6BMBvEcf_vklA-33" style="edgeStyle=orthogonalEdgeStyle;rounded=0;orthogonalLoop=1;jettySize=auto;html=1;exitX=0.25;exitY=1;exitDx=0;exitDy=0;" edge="1" parent="1" source="rJgXPqC6BMBvEcf_vklA-17" target="rJgXPqC6BMBvEcf_vklA-25">
          <mxGeometry relative="1" as="geometry" />
        </mxCell>
        <mxCell id="rJgXPqC6BMBvEcf_vklA-35" style="edgeStyle=orthogonalEdgeStyle;rounded=0;orthogonalLoop=1;jettySize=auto;html=1;exitX=0;exitY=1;exitDx=0;exitDy=0;" edge="1" parent="1" source="rJgXPqC6BMBvEcf_vklA-17" target="rJgXPqC6BMBvEcf_vklA-26">
          <mxGeometry relative="1" as="geometry" />
        </mxCell>
        <mxCell id="rJgXPqC6BMBvEcf_vklA-17" value="" style="image;html=1;image=img/lib/clip_art/networking/Print_Server_128x128.png" vertex="1" parent="1">
          <mxGeometry x="-70" y="495" width="66.5" height="80" as="geometry" />
        </mxCell>
        <mxCell id="rJgXPqC6BMBvEcf_vklA-24" value="" style="sketch=0;pointerEvents=1;shadow=0;dashed=0;html=1;strokeColor=none;fillColor=#505050;labelPosition=center;verticalLabelPosition=bottom;verticalAlign=top;outlineConnect=0;align=center;shape=mxgraph.office.devices.workstation_pc;" vertex="1" parent="1">
          <mxGeometry x="-70" y="650" width="53" height="59" as="geometry" />
        </mxCell>
        <mxCell id="rJgXPqC6BMBvEcf_vklA-25" value="" style="sketch=0;pointerEvents=1;shadow=0;dashed=0;html=1;strokeColor=none;fillColor=#505050;labelPosition=center;verticalLabelPosition=bottom;verticalAlign=top;outlineConnect=0;align=center;shape=mxgraph.office.devices.workstation_pc;" vertex="1" parent="1">
          <mxGeometry x="-150" y="650" width="53" height="59" as="geometry" />
        </mxCell>
        <mxCell id="rJgXPqC6BMBvEcf_vklA-26" value="" style="sketch=0;pointerEvents=1;shadow=0;dashed=0;html=1;strokeColor=none;fillColor=#505050;labelPosition=center;verticalLabelPosition=bottom;verticalAlign=top;outlineConnect=0;align=center;shape=mxgraph.office.devices.workstation_pc;" vertex="1" parent="1">
          <mxGeometry x="-260" y="650" width="53" height="59" as="geometry" />
        </mxCell>
        <mxCell id="rJgXPqC6BMBvEcf_vklA-28" value="" style="sketch=0;pointerEvents=1;shadow=0;dashed=0;html=1;strokeColor=none;fillColor=#505050;labelPosition=center;verticalLabelPosition=bottom;verticalAlign=top;outlineConnect=0;align=center;shape=mxgraph.office.devices.workstation_pc;" vertex="1" parent="1">
          <mxGeometry x="27" y="650" width="53" height="59" as="geometry" />
        </mxCell>
        <mxCell id="rJgXPqC6BMBvEcf_vklA-29" value="" style="sketch=0;pointerEvents=1;shadow=0;dashed=0;html=1;strokeColor=none;fillColor=#505050;labelPosition=center;verticalLabelPosition=bottom;verticalAlign=top;outlineConnect=0;align=center;shape=mxgraph.office.devices.workstation_pc;" vertex="1" parent="1">
          <mxGeometry x="120" y="650" width="53" height="59" as="geometry" />
        </mxCell>
        <mxCell id="rJgXPqC6BMBvEcf_vklA-37" value="" style="verticalLabelPosition=bottom;sketch=0;aspect=fixed;html=1;verticalAlign=top;strokeColor=none;align=center;outlineConnect=0;shape=mxgraph.citrix.file_server;" vertex="1" parent="1">
          <mxGeometry x="444.5" y="501.5" width="71" height="97" as="geometry" />
        </mxCell>
        <mxCell id="rJgXPqC6BMBvEcf_vklA-38" value="" style="sketch=0;pointerEvents=1;shadow=0;dashed=0;html=1;strokeColor=none;fillColor=#505050;labelPosition=center;verticalLabelPosition=bottom;verticalAlign=top;outlineConnect=0;align=center;shape=mxgraph.office.devices.workstation_pc;" vertex="1" parent="1">
          <mxGeometry x="387" y="650" width="53" height="59" as="geometry" />
        </mxCell>
        <mxCell id="rJgXPqC6BMBvEcf_vklA-39" value="" style="sketch=0;pointerEvents=1;shadow=0;dashed=0;html=1;strokeColor=none;fillColor=#505050;labelPosition=center;verticalLabelPosition=bottom;verticalAlign=top;outlineConnect=0;align=center;shape=mxgraph.office.devices.workstation_pc;" vertex="1" parent="1">
          <mxGeometry x="462.5" y="650" width="53" height="59" as="geometry" />
        </mxCell>
        <mxCell id="rJgXPqC6BMBvEcf_vklA-40" value="" style="sketch=0;pointerEvents=1;shadow=0;dashed=0;html=1;strokeColor=none;fillColor=#505050;labelPosition=center;verticalLabelPosition=bottom;verticalAlign=top;outlineConnect=0;align=center;shape=mxgraph.office.devices.workstation_pc;" vertex="1" parent="1">
          <mxGeometry x="530" y="650" width="53" height="59" as="geometry" />
        </mxCell>
        <mxCell id="rJgXPqC6BMBvEcf_vklA-41" value="" style="sketch=0;pointerEvents=1;shadow=0;dashed=0;html=1;strokeColor=none;fillColor=#505050;labelPosition=center;verticalLabelPosition=bottom;verticalAlign=top;outlineConnect=0;align=center;shape=mxgraph.office.devices.workstation_pc;" vertex="1" parent="1">
          <mxGeometry x="610" y="650" width="53" height="59" as="geometry" />
        </mxCell>
        <mxCell id="rJgXPqC6BMBvEcf_vklA-43" value="" style="edgeStyle=orthogonalEdgeStyle;rounded=0;orthogonalLoop=1;jettySize=auto;html=1;" edge="1" parent="1" source="rJgXPqC6BMBvEcf_vklA-42" target="rJgXPqC6BMBvEcf_vklA-41">
          <mxGeometry relative="1" as="geometry" />
        </mxCell>
        <mxCell id="rJgXPqC6BMBvEcf_vklA-42" value="" style="image;html=1;image=img/lib/clip_art/computers/Printer_128x128.png" vertex="1" parent="1">
          <mxGeometry x="740" y="629" width="80" height="80" as="geometry" />
        </mxCell>
        <mxCell id="rJgXPqC6BMBvEcf_vklA-44" value="" style="image;html=1;image=img/lib/clip_art/computers/Netbook_128x128.png" vertex="1" parent="1">
          <mxGeometry x="420" y="760" width="80" height="80" as="geometry" />
        </mxCell>
        <mxCell id="rJgXPqC6BMBvEcf_vklA-45" value="" style="image;html=1;image=img/lib/clip_art/computers/Netbook_128x128.png" vertex="1" parent="1">
          <mxGeometry x="516.5" y="760" width="80" height="80" as="geometry" />
        </mxCell>
        <mxCell id="rJgXPqC6BMBvEcf_vklA-48" style="edgeStyle=orthogonalEdgeStyle;rounded=0;orthogonalLoop=1;jettySize=auto;html=1;exitX=0;exitY=0.5;exitDx=0;exitDy=0;" edge="1" parent="1" source="rJgXPqC6BMBvEcf_vklA-46">
          <mxGeometry relative="1" as="geometry">
            <mxPoint x="370" y="550" as="targetPoint" />
          </mxGeometry>
        </mxCell>
        <mxCell id="rJgXPqC6BMBvEcf_vklA-46" value="" style="image;html=1;image=img/lib/clip_art/computers/Netbook_128x128.png" vertex="1" parent="1">
          <mxGeometry x="620" y="760" width="80" height="80" as="geometry" />
        </mxCell>
        <mxCell id="rJgXPqC6BMBvEcf_vklA-51" value="" style="sketch=0;pointerEvents=1;shadow=0;dashed=0;html=1;strokeColor=none;fillColor=#505050;labelPosition=center;verticalLabelPosition=bottom;verticalAlign=top;outlineConnect=0;align=center;shape=mxgraph.office.devices.workstation_pc;" vertex="1" parent="1">
          <mxGeometry x="490" y="260" width="53" height="59" as="geometry" />
        </mxCell>
        <mxCell id="rJgXPqC6BMBvEcf_vklA-52" value="" style="sketch=0;pointerEvents=1;shadow=0;dashed=0;html=1;strokeColor=none;fillColor=#505050;labelPosition=center;verticalLabelPosition=bottom;verticalAlign=top;outlineConnect=0;align=center;shape=mxgraph.office.devices.workstation_pc;" vertex="1" parent="1">
          <mxGeometry x="680" y="260" width="53" height="59" as="geometry" />
        </mxCell>
        <mxCell id="rJgXPqC6BMBvEcf_vklA-53" value="" style="sketch=0;pointerEvents=1;shadow=0;dashed=0;html=1;strokeColor=none;fillColor=#505050;labelPosition=center;verticalLabelPosition=bottom;verticalAlign=top;outlineConnect=0;align=center;shape=mxgraph.office.devices.workstation_pc;" vertex="1" parent="1">
          <mxGeometry x="583" y="260" width="53" height="59" as="geometry" />
        </mxCell>
        <mxCell id="rJgXPqC6BMBvEcf_vklA-54" value="" style="sketch=0;pointerEvents=1;shadow=0;dashed=0;html=1;strokeColor=none;fillColor=#505050;labelPosition=center;verticalLabelPosition=bottom;verticalAlign=top;outlineConnect=0;align=center;shape=mxgraph.office.devices.workstation_pc;" vertex="1" parent="1">
          <mxGeometry x="767" y="260" width="53" height="59" as="geometry" />
        </mxCell>
        <mxCell id="rJgXPqC6BMBvEcf_vklA-61" value="" style="image;html=1;image=img/lib/clip_art/computers/Printer_128x128.png" vertex="1" parent="1">
          <mxGeometry x="930" y="220" width="80" height="80" as="geometry" />
        </mxCell>
        <mxCell id="rJgXPqC6BMBvEcf_vklA-62" value="" style="image;html=1;image=img/lib/clip_art/computers/Printer_128x128.png" vertex="1" parent="1">
          <mxGeometry x="940" y="460" width="80" height="80" as="geometry" />
        </mxCell>
        <mxCell id="rJgXPqC6BMBvEcf_vklA-63" value="" style="image;html=1;image=img/lib/clip_art/computers/Printer_128x128.png" vertex="1" parent="1">
          <mxGeometry x="940" y="350" width="80" height="80" as="geometry" />
        </mxCell>
        <mxCell id="rJgXPqC6BMBvEcf_vklA-68" value="A" style="text;strokeColor=#0055FF;align=center;fillColor=none;html=1;verticalAlign=middle;whiteSpace=wrap;rounded=0;" vertex="1" parent="1">
          <mxGeometry x="580" y="50" width="260" height="190" as="geometry" />
        </mxCell>
        <mxCell id="rJgXPqC6BMBvEcf_vklA-70" value="C" style="text;strokeColor=#FF5145;align=center;fillColor=none;html=1;verticalAlign=middle;whiteSpace=wrap;rounded=0;" vertex="1" parent="1">
          <mxGeometry x="636" y="850" width="244" height="280" as="geometry" />
        </mxCell>
        <mxCell id="rJgXPqC6BMBvEcf_vklA-76" value="B" style="text;strokeColor=#00FF5E;align=center;fillColor=none;html=1;verticalAlign=middle;whiteSpace=wrap;rounded=0;" vertex="1" parent="1">
          <mxGeometry x="-300" y="100" width="240" height="220" as="geometry" />
        </mxCell>
      </root>
    </mxGraphModel>
  </diagram>
</mxfile>
